<svg height="512" viewBox="0 0 60 60" width="512" xmlns="http://www.w3.org/2000/svg"><g id="014---Beetle" fill="none" transform="translate(-1)"><path id="Shape" d="m38.83 6.17c.7499543.75078842 1.1708345 1.76881482 1.17 2.83l.0000012 5h-18.0000024l.0000012-5c-.0008345-1.06118518.4200457-2.07921158 1.17-2.83z" fill="#35495e"/><circle id="Oval" cx="27" cy="5" fill="#ff5364" r="5"/><circle id="Oval" cx="35" cy="5" fill="#ff5364" r="5"/><path id="Shape" d="m31 5c.004123 2.13473642-1.66881 3.89651772-3.8009047 4.00276796-2.1320946.10625023-3.9718964-1.48047839-4.1800305-3.60504817-.2081341-2.12456979 1.2887561-4.03817845 3.4009352-4.34771979 1.1484755-.16830989 2.3134254.17056482 3.19242.92864968.8789946.75808485 1.3853382 1.86060956 1.38758 3.02135032z" fill="#fff"/><path id="Shape" d="m39 5c0 2.209139-1.790861 4-4 4s-4-1.790861-4-4c.0168714-1.51326017.8719718-2.89220577 2.22-3.58 1.239569-.61595713 2.7094888-.54728308 3.8862291.18156303 1.1767404.72884612 1.8930366 2.01426429 1.8937709 3.39843697z" fill="#fff"/><g fill="#35495e"><circle id="Oval" cx="28" cy="5" r="2"/><circle id="Oval" cx="34" cy="5" r="2"/><path id="Shape" d="m19 17c-.41 0 .17.28-8.53-5.15-.26-.16 0 .22-4.3-6.3-.2380487-.29552844-.28831086-.70033428-.12976408-1.04510545.15854677-.34477117.49858092-.570095.87788146-.58172867.37930053-.01163368.73250452.19242758.91188262.52683412l3.88 5.82 7.82 4.88c.3803023.235685.5577738.6953033.4345533 1.1254126-.1232205.4301092-.5171439.7260306-.9645533.7245874z"/><path id="Shape" d="m7 6c-1.43026977-.25693048-2.84565516-.59074779-4.24-1-.55228475-.13254834-.89254834-.68771525-.76-1.24s.68771525-.89254834 1.24-.76l2.76.72v-2.72c0-.55228475.44771525-1 1-1s1 .44771525 1 1v4c0 .55228475-.44771525 1-1 1z"/><path id="Shape" d="m5 43c-.32834153.0010679-.63628748-.1591168-.8239096-.4285741s-.23101228-.6138511-.1160904-.9214259c3.19-8.51 3-8.25 3.43-8.51l5-3c.3087061-.2245083.7182934-.2536931 1.0557132-.0752238.3374198.1784692.5438087.5334581.5319684.9149856-.0118404.3815274-.2398445.7230353-.5876816.8802382l-4.7 2.82-2.85 7.67c-.14646395.3920069-.52152747.6513593-.94.65z"/><path id="Shape" d="m5 47c-.55228475 0-1-.4477153-1-1v-1.59l-1.29 1.3c-.39212217.3921222-1.02787782.3921222-1.41999999 0s-.39212217-1.0278778-.00000001-1.42l3-3c.28609046-.2884599.71826679-.3751619 1.09348151-.219371.37521471.155791.61888111.5231059.61651849.929371v4c0 .5522847-.44771525 1-1 1z"/><path id="Shape" d="m10.93 56c-.5086257.0036739-.9389766-.3750349-1-.88l-1-8.49c-.06-.48-.09-.27 3.21-5.6.3139391-.3739913.8520664-.4665715 1.2729404-.2189986.4208739.2475729.6014106.7628967.4270596 1.2189986l-2.84 4.67.95 8.14c.0480085.2951581-.0385935.5963118-.2360584.8208797s-.4850672.3489799-.7839416.3391203z"/><path id="Shape" d="m9.64 60c-.32647312.0151647-.63975538-.1301627-.83902418-.3892122-.1992688-.2590494-.25937537-.5991274-.16097582-.9107878l1.36-4.05c.1244954-.3840003.467661-.6554906.8700035-.6882903.4023426-.0327997.7849495.1795244.9699965.5382903l1.83 3.56c.2067742.3199237.2138284.7295377.0181927 1.0563914-.1956357.3268538-.5599784.5141712-.939637.4830903-.3796587-.031081-.7086847-.2751615-.8485557-.6294817l-.73-1.41-.58 1.74c-.1305765.4152186-.5147371.6982843-.95.7z"/><path id="Shape" d="m43 17c-.4474094.0014432-.8413328-.2944782-.9645533-.7245874-.1232205-.4301093.054251-.8897276.4345533-1.1254126l7.82-4.88 3.88-5.82c.1793781-.33440654.5325821-.5384678.9118826-.52683412.3793006.01163367.7193347.2369575.8778815.58172867s.1082846.74957701-.1297641 1.04510545c-4.31 6.47-4 6.13-4.3 6.3-8.7 5.43-8.12 5.15-8.53 5.15z"/><path id="Shape" d="m55 6c-.5522847 0-1-.44771525-1-1v-4c0-.55228475.4477153-1 1-1s1 .44771525 1 1v2.72l2.76-.72c.5522847-.13254834 1.1074517.20771525 1.24.76s-.2077153 1.10745166-.76 1.24c-1.3932274.41346456-2.8088476.74733726-4.24 1z"/><path id="Shape" d="m57 43c-.4184725.0013593-.7935361-.2579931-.94-.65l-2.87-7.67-4.7-2.82c-.3478371-.1572029-.5758412-.4987108-.5876816-.8802382-.0118403-.3815275.1945486-.7365164.5319684-.9149856.3374198-.1784693.7470071-.1492845 1.0557132.0752238l5 3c.43.26.2-.1 3.43 8.51.1137407.3042805.0725941.6448493-.1103408.9132863-.1829348.268437-.4848605.4312896-.8096592.4367137z"/><path id="Shape" d="m57 47c-.5522847 0-1-.4477153-1-1v-4c-.0023626-.4062651.2413038-.77358.6165185-.929371.3752147-.1557909.807391-.0690889 1.0934815.219371l3 3c.3921222.3921222.3921222 1.0278778 0 1.42s-1.0278778.3921222-1.42 0l-1.29-1.3v1.59c0 .5522847-.4477153 1-1 1z"/><path id="Shape" d="m51.07 56c-.2873798.0020776-.5617624-.1195851-.7531669-.3339581s-.2813271-.5007322-.2468331-.7860419l1-8.14-2.92-4.74c-.174351-.4561019.0061857-.9714257.4270596-1.2189986.420874-.2475729.9590013-.1549927 1.2729404.2189986 3.29 5.31 3.27 5.12 3.21 5.6l-1 8.49c-.0463533.5130484-.4748709.9069383-.99.91z"/><path id="Shape" d="m52.36 60c-.4536001.0207659-.8642525-.2666908-1-.7l-.56-1.74-.68 1.44c-.139871.3543202-.468897.5984007-.8485557.6294817-.3796586.0310809-.7440013-.1562365-.939637-.4830903-.1956357-.3268537-.1885815-.7364677.0181927-1.0563914l1.83-3.56c.185047-.3587659.5676539-.57109.9699965-.5382903.4023425.0327997.7455081.30429.8700035.6882903l1.29 4.05c.0839109.2991402.0240169.6202893-.1620812.8690731-.1860982.2487838-.4772582.3969386-.7879188.4009269z"/></g><path id="Shape" d="m28 3c.0003375.82037489-.5003473 1.55776118-1.2629888 1.86007389-.7626415.3023127-1.63256.1082364-2.1943893-.48956193-.5618294-.59779834-.7016187-1.47807255-.3526219-2.22051196.6075963-.59426394 1.3886823-.97955299 2.23-1.1.9197157.19754168 1.5774581 1.0093124 1.58 1.95z" fill="#fff"/><path id="Shape" d="m34 3c.0028489.71595059-.3772235 1.37881251-.996548 1.73802071-.6193245.35920821-1.383419.35996309-2.003452.00197929.0930745-1.42119275.9348086-2.68569832 2.21-3.32.4942558.37553377.7861264.95927513.79 1.58z" fill="#fff"/><path id="Shape" d="m49 20v21.42c0 4.63-2.28 8.85-5.86 10.84l-11.65 6.47c-.3094011.1786328-.6905989.1786328-1 0l-11.63-6.47c-3.58-2-5.86-6.21-5.86-10.84v-21.42c-.1438826-2.0472919 1.3847181-3.8299166 3.43-4h29.14c2.0452819.1700834 3.5738826 1.9527081 3.43 4z" fill="#df4d60"/><path id="Shape" d="m47 20v21.42c0 4.63-2 8.85-5.21 10.84l-10.35 6.47c-.2684912.1707283-.6115088.1707283-.88 0l-10.35-6.47c-3.21-1.99-5.21-6.21-5.21-10.84v-21.42c0-2.21 1.37-4 3.05-4h25.95c1.63 0 3 1.79 3 4z" fill="#ff5364"/><path id="Shape" d="m31 32c-.5522847 0-1-.4477153-1-1v-4c0-.5522847.4477153-1 1-1s1 .4477153 1 1v4c0 .5522847-.4477153 1-1 1z" fill="#fb7b76"/><path id="Shape" d="m32 35v23.45c-1 .56-1 .56-2 0v-23.45c0-.5522847.4477153-1 1-1s1 .4477153 1 1z" fill="#fb7b76"/><path id="Shape" d="m41 21.46-8.57 5.17c-.854496.4909731-1.905504.4909731-2.76 0l-8.57-5.17c-1.250508-.6738565-2.0498242-1.960375-2.1-3.38v-3c.0906521-1.2359722 1.1636912-2.1659394 2.4-2.08h19.2c1.2326915-.0861029 2.3041479.8380282 2.4 2.07v3c-.0261272 1.4025189-.7850318 2.6888622-2 3.39z" fill="#3f5c6c"/></g></svg>