<svg height="512" viewBox="0 0 59 60" width="512" xmlns="http://www.w3.org/2000/svg"><g id="017---Butterfly" fill="none" fill-rule="evenodd"><path id="Shape" d="m58.91 59c-6.91.28-20.73-.52-25.91-5.09l-6-.07c-5.33 4.68-19.15 5.43-26 5.16 1-18 14-20 14-20-2.8249006.0686127-5.60740919-.6965772-8-2.2 1.61993864-2.3106513 4.1868547-3.7774604 7-4-15-6-13-28.8-13-28.8 9.51 1.19 15.41 4.07 19.07 7.17h19.85c3.66-3.07 9.55-6 19-7.17 0 0 2 22.8-13 28.8 2.8131453.2225396 5.3800614 1.6893487 7 4-2.3925908 1.5034228-5.1750994 2.2686127-8 2.2 0 0 12.99 2 13.99 20z" fill="#955ba5" fill-rule="nonzero"/><circle id="Oval" cx="47.91" cy="17" fill="#f0c419" fill-rule="nonzero" r="5"/><path id="Shape" d="m33.72 54.49c-.2658184-.1764015-.5197036-.3701559-.76-.58l-5.96-.07c-.2425298.213317-.4962206.4135992-.76.6-3.6-9.16-5.32-28.88-3.52-37.44l7.28-5 7.28 5c1.82 8.64.05 28.41-3.56 37.49z" fill="#894b9d" fill-rule="nonzero"/><path id="Shape" d="m25 9c-.5522847 0-1-.44771525-1-1 0-.24-.08-6-5-6-.5522847 0-1-.44771525-1-1s.4477153-1 1-1c5.54 0 7 5.23 7 8 0 .55228475-.4477153 1-1 1z" fill="#35495e" fill-rule="nonzero"/><path id="Shape" d="m35 9c-.5522847 0-1-.44771525-1-1 0-2.77 1.46-8 7-8 .5522847 0 1 .44771525 1 1s-.4477153 1-1 1c-4.92 0-5 5.76-5 6 0 .55228475-.4477153 1-1 1z" fill="#35495e" fill-rule="nonzero"/><path id="Shape" d="m29.59 10h.82" stroke="#000" stroke-linecap="round" stroke-linejoin="round" stroke-width="2"/><g fill-rule="nonzero"><path id="Shape" d="m35.46 17c1.82 11.63-1.18 42-5.46 42s-7.27-30.44-5.46-42l5.46-5z" fill="#f0c419"/><circle id="Oval" cx="25" cy="12" fill="#3d324c" r="6"/><circle id="Oval" cx="35" cy="12" fill="#3d324c" r="6"/><circle id="Oval" cx="25" cy="12" fill="#fff" r="5"/><path id="Shape" d="m40 12c0 2.3513022-1.6382865 4.3849178-3.9357036 4.8854143-2.2974172.5004965-4.6331526-.6673712-5.6112057-2.8056028s-.3341325-4.66903015 1.5469093-6.0798115c1.5150882-1.13631618 3.5421478-1.31909603 5.236068-.47213595 1.6939201.84696007 2.763932 2.57827565 2.763932 4.47213595z" fill="#fff"/><circle id="Oval" cx="26" cy="12" fill="#35495e" r="2"/><circle id="Oval" cx="34" cy="12" fill="#35495e" r="2"/><path id="Shape" d="m27.55 25.45c-.4761403-.2553377-.6633673-.842705-.4228266-1.3264892.2405408-.4837841.8218583-.689026 1.3128266-.4635108.9908032.436097 2.1191968.436097 3.11 0 .4943143-.2454836 1.0940469-.0440809 1.34.45.2469243.4916536.050313 1.0904244-.44 1.34-1.5515949.7307697-3.3484051.7307697-4.9 0z" fill="#f29c1f"/><path id="Shape" d="m27.55 29.45c-.4761403-.2553377-.6633673-.842705-.4228266-1.3264892.2405408-.4837841.8218583-.689026 1.3128266-.4635108.9908032.436097 2.1191968.436097 3.11 0 .4943143-.2454836 1.0940469-.0440809 1.34.45.2469243.4916536.050313 1.0904244-.44 1.34-1.5515949.7307697-3.3484051.7307697-4.9 0z" fill="#f29c1f"/><path id="Shape" d="m27.55 33.45c-.4761403-.2553377-.6633673-.842705-.4228266-1.3264892.2405408-.4837841.8218583-.689026 1.3128266-.4635108.9908032.436097 2.1191968.436097 3.11 0 .4943143-.2454836 1.0940469-.0440809 1.34.45.2469243.4916536.050313 1.0904244-.44 1.34-1.5515949.7307697-3.3484051.7307697-4.9 0z" fill="#f29c1f"/><path id="Shape" d="m27.55 37.45c-.4761403-.2553377-.6633673-.842705-.4228266-1.3264892.2405408-.4837841.8218583-.689026 1.3128266-.4635108.9908032.436097 2.1191968.436097 3.11 0 .4943143-.2454836 1.0940469-.0440809 1.34.45.2469243.4916536.050313 1.0904244-.44 1.34-1.5515949.7307697-3.3484051.7307697-4.9 0z" fill="#f29c1f"/><circle id="Oval" cx="12" cy="17" fill="#f0c419" r="5"/><circle id="Oval" cx="12" cy="17" fill="#f29c1f" r="3"/><circle id="Oval" cx="48" cy="17" fill="#f29c1f" r="3"/><circle id="Oval" cx="15" cy="49" fill="#f0c419" r="4"/><circle id="Oval" cx="44.91" cy="49" fill="#f0c419" r="4"/><circle id="Oval" cx="44.91" cy="49" fill="#f29c1f" r="2"/><circle id="Oval" cx="15" cy="49" fill="#f29c1f" r="2"/><path id="Shape" d="m26 10c0 1.1045695-.8954305 2-2 2s-2-.8954305-2-2 .8954305-2 2-2 2 .8954305 2 2z" fill="#fff"/><path id="Shape" d="m34 10c-.006505.9478066-.6774091 1.7608886-1.6067386 1.9472386-.9293296.1863499-1.8618422-.3052136-2.2332614-1.1772386.2793276-1.10622312.9285893-2.08364432 1.84-2.77 1.1045695 0 2 .8954305 2 2z" fill="#fff"/></g></g></svg>