<svg height="512" viewBox="0 0 60 59" width="512" xmlns="http://www.w3.org/2000/svg"><g id="034---Dragonfly" fill="none"><path id="Shape" d="m37.9 17.5c16.1-5.61 15.38-5.43 16.22-5.5 1.7112806-.3200332 3.4548615.3667077 4.4882535 1.7677801 1.0333919 1.4010723 1.1745768 3.269696.3634323 4.8101333-.8111446 1.5404373-2.4317464 2.481361-4.1716858 2.4220866-21.51 1.58-14.35 1.35-31.68 1.35l-17.92-1.29c-1.77019238-.1102564-3.31409495-1.2412638-3.95299021-2.8958182s-.25578527-3.529665.98091037-4.8010113 3.10050656-1.7061126 4.77207984-1.1131705l15.1 5.25z" fill="#9fc9d3"/><path id="Shape" d="m35.94 19.24h-11.88c-3.6115985-2.2126713-5.0303268-6.7551658-3.32-10.63l9.26-2.61 9.26 2.61c1.7056678 3.8750964.2879169 8.4144616-3.32 10.63z" fill="#35495e"/><circle id="Oval" cx="25" cy="6" fill="#f29c1f" r="6"/><circle id="Oval" cx="35" cy="6" fill="#f29c1f" r="6"/><path id="Shape" d="m37.27 18.18c-.4118444.3911313-.8568463.7457945-1.33 1.06h-11.88c-.4731537-.3142055-.9181556-.6688687-1.33-1.06 3.35-6.9 11.19-6.9 14.54 0z" fill="#2c3e50"/><path id="Shape" d="m30 6c-.0019316 1.90251834-1.083411 3.63908744-2.79 4.48-1.4038997-.63968386-3.0161003-.63968386-4.42 0-2.214346-1.09111031-3.3010018-3.63496733-2.5583956-5.98919463s3.0922012-3.81416986 5.531829-3.43725298 4.2390717 2.4778764 4.2365666 4.94644761z" fill="#fff"/><path id="Shape" d="m40 6c-.0019316 1.90251834-1.083411 3.63908744-2.79 4.48-1.4038997-.63968386-3.0161003-.63968386-4.42 0-2.214346-1.09111031-3.3010018-3.63496733-2.5583956-5.98919463s3.0922012-3.81416986 5.531829-3.43725298 4.2390717 2.4778764 4.2365666 4.94644761z" fill="#fff"/><circle id="Oval" cx="26" cy="6" fill="#35495e" r="2"/><circle id="Oval" cx="24" cy="4" fill="#fff" r="2"/><circle id="Oval" cx="34" cy="6" fill="#35495e" r="2"/><path id="Shape" d="m34 4c-.006505.94780663-.6774091 1.76088862-1.6067386 1.94723856-.9293296.18634993-1.8618422-.3052136-2.2332614-1.17723856.2793276-1.10622312.9285893-2.08364432 1.84-2.77 1.1045695 0 2 .8954305 2 2z" fill="#fff"/><path id="Shape" d="m33 32.13v23.87c0 1.6568542-1.3431458 3-3 3s-3-1.3431458-3-3v-23.87z" fill="#f29c1f"/><path id="Shape" d="m33 32.13v2c-1.8305562 1.1642811-4.1694438 1.1642811-6 0v-2z" fill="#e57e25"/><path id="Shape" d="m36.94 22.9 17.41 5.21c1.6856025.5090806 2.9248314 1.9469031 3.1796196 3.6891723.2547883 1.7422691-.5208191 3.4747399-1.9900572 4.4451822s-3.3671074 1.0038218-4.8695624.0856455l-14.24-8.77h-12.86c-15.23 9.38-14.46 9-15.32 9.25-2.40243866.7179702-4.93202983-.6475613-5.65-3.05s.64756134-4.9320298 3.05-5.65l17.41-5.21z" fill="#84b5cb"/><g fill="#f0c419"><path id="Rectangle-path" d="m27 39h6v4h-6z"/><path id="Rectangle-path" d="m27 49h6v4h-6z"/><ellipse id="Oval" cx="30" cy="24" rx="7" ry="9"/></g></g></svg>