<svg height="512" viewBox="0 0 58 56" width="512" xmlns="http://www.w3.org/2000/svg"><g id="010---Fly" fill="none"><path id="Shape" d="m36.87 5-7.87 22-7.87-22c3.98-6.65 11.75-6.67 15.74 0z" fill="#4482c3"/><path id="Shape" d="m30 23-2.05 1-6.82-19c.21-.35.44-.69.68-1 4.49 4.45 7.55 12.55 8.19 19z" fill="#285680"/><path id="Shape" d="m36.87 5-6.82 19.05-2.05-1.05c.65-6.54 3.76-14.61 8.19-19 .24.29.47.63.68 1z" fill="#285680"/><path id="Shape" d="m11 56h-2c-.55228475 0-1-.4477153-1-1s.44771525-1 1-1h1.28l1.58-4.76c.4-1.14.79-1.24 4.6-4.29.4287515-.3426824 1.0535791-.2757366 1.4.15.1677705.2065934.2462689.4715409.2181156.7361825-.0281534.2646416-.1606359.5071443-.3681156.6738175l-3.63 2.9c-.33.27-.21.15-2.13 5.91-.1375721.4073117-.5200841.6811098-.95.68z" fill="#35495e"/><path id="Shape" d="m3 53h-2c-.55228475 0-1-.4477153-1-1s.44771525-1 1-1h1.34l2.43-5.67c.30063454-.6905733.84539389-1.2460142 1.53-1.56l6.25-2.77c.3290986-.1734267.7272641-.1498414 1.0335872.0612245.3063232.2110659.4701688.5747233.4253225.9440084s-.2909715.6831553-.6389097.8147671l-6.24 2.77c-.23103828.1089358-.41548429.2969288-.52.53l-2.69 6.27c-.1564992.3695049-.5187198.609673-.92.61z" fill="#35495e"/><path id="Shape" d="m49 56h-2c-.4481524.0233915-.8570061-.2546291-1-.68-1.93-5.78-1.8-5.64-2.13-5.91l-3.63-2.9c-.2074797-.1666732-.3399622-.4091759-.3681156-.6738175-.0281533-.2646416.0503451-.5295891.2181156-.7361825.3464209-.4257366.9712485-.4926824 1.4-.15l3.63 2.9c.4564955.356788.8030986.8351003 1 1.38l1.6 4.77h1.28c.5522847 0 1 .4477153 1 1s-.4477153 1-1 1z" fill="#35495e"/><path id="Shape" d="m57 53h-2c-.4012802-.000327-.7635008-.2404951-.92-.61l-2.69-6.28c-.1078631-.2283368-.2916632-.4121369-.52-.52l-6.24-2.78c-.4362813-.2609811-.6073183-.8077642-.3975267-1.2708408s.7336361-.6950515 1.2175267-.5391592l6.24 2.78c.6865882.3095455 1.2349049.8614227 1.54 1.55l2.43 5.67h1.34c.5522847 0 1 .4477153 1 1s-.4477153 1-1 1z" fill="#35495e"/><path id="Shape" d="m12.28 31.18c-3.73076301-2.8603885-6.88058054-6.4073274-9.28-10.45-5.34-9.06-3-15.66 2.74-19.01s12.64-2.14 17.93 6.87c2.5477676 4.426757 4.1514248 9.3330628 4.71 14.41z" fill="#9fc9d3"/><path id="Shape" d="m45.72 31.18c3.730763-2.8603885 6.8805805-6.4073274 9.28-10.45 5.31-9.06 2.95-15.66-2.77-19s-12.61-2.15-17.9 6.86c-2.5461782 4.4274649-4.1497241 9.3334303-4.71 14.41z" fill="#9fc9d3"/><g fill="#84b5cb"><path id="Shape" d="m19.41 26c-.3530673-.0000616-.6799357-.1863005-.86-.49l-8.41-14c-.21118959-.4672916-.0346812-1.0186013.408637-1.2763444.4433181-.25774313 1.0097539-.1383777 1.311363.2763444l8.41 14c.1730625.3078262.1709358.6841081-.0055953.9899584-.176531.3058504-.5012891.4959155-.8544047.5000416z"/><path id="Shape" d="m22.67 24.83c-.459171.0182755-.8716939-.2787409-1-.72l-1.67-5.83c-.1546397-.5522847.1677153-1.1253603.72-1.28s1.1253603.1677153 1.28.72l1.67 5.83c.0904197.3090403.0264961.6427129-.1717391.8964539-.1982351.2537409-.5065253.3965021-.8282609.3835461z"/><path id="Shape" d="m16.44 27.7c-.5 0-.32 0-5.08-3.93-.4252593-.3534622-.4834622-.9847407-.13-1.41s.9847407-.4834622 1.41-.13l4.44 3.7c.3248561.2691834.4458287.7132874.3023708 1.110038-.1434578.3967506-.5204816.6607882-.9423708.659962z"/><path id="Shape" d="m38.59 26c-.3593049-.0000627-.6909565-.1928829-.8687761-.505101-.1778196-.3122182-.1744694-.6958342.0087761-1.004899l8.41-14c.1572029-.3478371.4987108-.5758412.8802382-.58768157.3815275-.01184037.7365164.19454857.9149856.53196837.1784693.3374198.1492845.7470071-.0752238 1.0557132l-8.41 14c-.1750051.3113964-.502821.5057988-.86.51z"/><path id="Shape" d="m35.33 24.83c-.3217356.012956-.6300258-.1298052-.8282609-.3835461-.1982352-.253741-.2621588-.5874136-.1717391-.8964539l1.67-5.83c.1546398-.5301933.7098066-.8346397 1.24-.6799999.5301933.1546397.8346397.7098066.68 1.2399999l-1.67 5.83c-.1200233.4128034-.4904502.7027027-.92.72z"/><path id="Shape" d="m41.56 27.7c-.4218892.0008262-.798913-.2632114-.9423708-.659962-.1434579-.3967506-.0224853-.8408546.3023708-1.110038l4.44-3.7c.2750945-.22865.6512756-.2931701.9868396-.1692563.3355639.1239139.5795305.4174362.64.77.0604694.3525639-.0717451.7106063-.3468396.9392563-4.73 3.95-4.58 3.93-5.08 3.93z"/></g><path id="Shape" d="m31.56 48.87c8.73-.87 15.44-6.32 15.44-12.87 0-7.18-8.06-13-18-13s-18 5.82-18 13c0 6.55 6.71 12 15.44 12.87z" fill="#3b97d3"/><circle id="Oval" cx="23" cy="35" fill="#285680" r="7"/><circle id="Oval" cx="35" cy="35" fill="#285680" r="7"/><circle id="Oval" cx="23" cy="35" fill="#fff" r="6"/><circle id="Oval" cx="35" cy="35" fill="#fff" r="6"/><path id="Shape" d="m29 45c1.0768536-.0042242 1.9891105.7923944 2.13 1.86.2 1.53.68 3.54 1.87 4.14 2 1 0 2-4 2s-6-1-4-2c1.19-.6 1.67-2.61 1.87-4.14.1366827-1.0698551 1.0514841-1.8686958 2.13-1.86z" fill="#2980ba"/><circle id="Oval" cx="23" cy="35" fill="#35495e" r="2"/><circle id="Oval" cx="35" cy="35" fill="#35495e" r="2"/><circle id="Oval" cx="21" cy="33" fill="#fff" r="2"/><circle id="Oval" cx="33" cy="33" fill="#fff" r="2"/></g></svg>